<svg width="28" height="28" viewBox="0 0 28 28" fill="none" xmlns="http://www.w3.org/2000/svg">
<path fill-rule="evenodd" clip-rule="evenodd" d="M14 1.7499C12.1435 1.7499 10.363 2.48739 9.05025 3.80015C7.7375 5.1129 7 6.89338 7 8.7499C7 10.6064 7.7375 12.3869 9.05025 13.6996C10.363 15.0124 12.1435 15.7499 14 15.7499C15.8565 15.7499 17.637 15.0124 18.9497 13.6996C20.2625 12.3869 21 10.6064 21 8.7499C21 6.89338 20.2625 5.1129 18.9497 3.80015C17.637 2.48739 15.8565 1.7499 14 1.7499ZM5.25 8.7499C5.25002 7.05662 5.74135 5.39972 6.6644 3.98016C7.58745 2.56059 8.90256 1.43935 10.4502 0.752404C11.9979 0.0654617 13.7116 -0.157662 15.3836 0.110092C17.0556 0.377847 18.614 1.12498 19.8697 2.26087C21.1255 3.39676 22.0247 4.87261 22.4583 6.50943C22.8919 8.14626 22.8412 9.87372 22.3125 11.4823C21.7837 13.0909 20.7996 14.5116 19.4794 15.5719C18.1593 16.6323 16.5598 17.2868 14.875 17.4561V20.9999H18.375C18.6071 20.9999 18.8296 21.0921 18.9937 21.2562C19.1578 21.4203 19.25 21.6428 19.25 21.8749C19.25 22.107 19.1578 22.3295 18.9937 22.4936C18.8296 22.6577 18.6071 22.7499 18.375 22.7499H14.875V27.1249C14.875 27.357 14.7828 27.5795 14.6187 27.7436C14.4546 27.9077 14.2321 27.9999 14 27.9999C13.7679 27.9999 13.5454 27.9077 13.3813 27.7436C13.2172 27.5795 13.125 27.357 13.125 27.1249V22.7499H9.625C9.39294 22.7499 9.17038 22.6577 9.00628 22.4936C8.84219 22.3295 8.75 22.107 8.75 21.8749C8.75 21.6428 8.84219 21.4203 9.00628 21.2562C9.17038 21.0921 9.39294 20.9999 9.625 20.9999H13.125V17.4561C10.9667 17.2392 8.96591 16.2284 7.51079 14.6196C6.05567 13.0109 5.24997 10.9191 5.25 8.7499Z" fill="#3DAAC5"/>
</svg>
