<svg id="eq87RLPUpEk1" xmlns="http://www.w3.org/2000/svg" xmlns:xlink="http://www.w3.org/1999/xlink" viewBox="-10 0 430.69 168.46" shape-rendering="geometricPrecision" text-rendering="geometricPrecision">
	<!-- Animação do logo -->
    <style>
		<![CDATA[
            #eq87RLPUpEk2 {animation: eq87RLPUpEk2__sz 1500ms linear 1 normal forwards}@keyframes eq87RLPUpEk2__sz { 0% {width: 66.21px;height: 0px;animation-timing-function: cubic-bezier(0.42,0,1,1)} 13.333333% {width: 66.21px;height: 167.69px} 100% {width: 66.21px;height: 167.69px}} #eq87RLPUpEk2_to {animation: eq87RLPUpEk2_to__to 1500ms linear 1 normal forwards}@keyframes eq87RLPUpEk2_to__to { 0% {transform: translate(176.743162px,-424.987701px);animation-timing-function: cubic-bezier(0.42,0,1,1)} 13.333333% {transform: translate(228.74px,-484.99px)} 100% {transform: translate(228.74px,-484.99px)}} #eq87RLPUpEk3_to {animation: eq87RLPUpEk3_to__to 1500ms linear 1 normal forwards}@keyframes eq87RLPUpEk3_to__to { 0% {transform: translate(34.979067px,142.855769px)} 80% {transform: translate(34.979067px,142.855769px);animation-timing-function: cubic-bezier(0.325,1.1,0.27,1.08)} 100% {transform: translate(283.779999px,143.566757px)}} #eq87RLPUpEk3 {animation: eq87RLPUpEk3_c_o 1500ms linear 1 normal forwards}@keyframes eq87RLPUpEk3_c_o { 0% {opacity: 0} 12.666667% {opacity: 0} 13.333333% {opacity: 1} 100% {opacity: 1}} #eq87RLPUpEk12_to {animation: eq87RLPUpEk12_to__to 1500ms linear 1 normal forwards}@keyframes eq87RLPUpEk12_to__to { 0% {transform: translate(188.590521px,24.319311px)} 60% {transform: translate(188.590521px,24.319311px)} 67.333333% {transform: translate(188.849991px,84.161606px)} 100% {transform: translate(188.849991px,84.161606px)}} #eq87RLPUpEk12 {animation: eq87RLPUpEk12_c_o 1500ms linear 1 normal forwards}@keyframes eq87RLPUpEk12_c_o { 0% {opacity: 0} 58.666667% {opacity: 0} 59.333333% {opacity: 1} 100% {opacity: 1}} #eq87RLPUpEk15 {animation: eq87RLPUpEk15_c_o 1500ms linear 1 normal forwards}@keyframes eq87RLPUpEk15_c_o { 0% {opacity: 0} 12.666667% {opacity: 0} 13.333333% {opacity: 1} 100% {opacity: 1}} #eq87RLPUpEk17_to {animation: eq87RLPUpEk17_to__to 1500ms linear 1 normal forwards}@keyframes eq87RLPUpEk17_to__to { 0% {transform: translate(380.430016px,24.91628px)} 33.333333% {transform: translate(380.430016px,24.91628px);animation-timing-function: cubic-bezier(0.325,1.1,0.27,1.08)} 53.333333% {transform: translate(108.51001px,25.160065px)} 100% {transform: translate(108.51001px,25.160065px)}} #eq87RLPUpEk27 {animation: eq87RLPUpEk27_c_o 1500ms linear 1 normal forwards}@keyframes eq87RLPUpEk27_c_o { 0% {opacity: 0} 12.666667% {opacity: 0} 13.333333% {opacity: 1} 100% {opacity: 1}}
        ]]>
	</style>
	<g id="eq87RLPUpEk2_to" transform="translate(176.743162,-424.987701)">
		<rect id="eq87RLPUpEk2" width="66.21" height="0" rx="0" ry="0" transform="rotate(42.910015) translate(325.66,359.44)" fill="#f2ec60" />
	</g>
	<g id="eq87RLPUpEk3_to" transform="translate(34.979067,142.855769)">
		<g id="eq87RLPUpEk3" transform="translate(-283.779999,-143.566757)" opacity="0">
			<path d="M331,527.14v-48.6h14.28c2.472339-.106782,4.927952.452725,7.11,1.62c1.813064,1.089695,3.218325,2.74439,4,4.71.917797,2.380734,1.356191,4.91934,1.29,7.47.097848,2.654415-.480231,5.29018-1.68,7.66-1.004404,1.869286-2.596379,3.355833-4.53,4.23-2.169421.925681-4.512001,1.375784-6.87,1.32h-4.8v21.6Zm8.88-27.84h3.36c1.28639.060852,2.569522-.175244,3.75-.69.896632-.455598,1.568449-1.257443,1.86-2.22.382124-1.33526.554181-2.721841.51-4.11.031082-1.440093-.099738-2.87912-.39-4.29-.196029-1.00909-.805186-1.890193-1.68-2.43-1.259793-.605977-2.655255-.874732-4.05-.78h-3.36Z" transform="translate(-169.1-359.34)" fill="#ec2226" />
			<path d="M375.78,527.8c-2.868943.142658-5.720352-.522556-8.23-1.92-2.046225-1.287282-3.591494-3.234745-4.38-5.52-.931278-2.741606-1.374657-5.625263-1.31-8.52v-18.18c-.070274-2.865684.3734-5.720782,1.31-8.43.798865-2.240516,2.345788-4.137086,4.38-5.37c5.230849-2.480422,11.299151-2.480422,16.53,0c2.026687,1.241547,3.571166,3.13512,4.38,5.37.969211,2.702114,1.4303,5.560183,1.36,8.43v18.24c.063475,2.86935-.397413,5.726183-1.36,8.43-.809904,2.273453-2.350131,4.214562-4.38,5.52q-3.03,1.95-8.3,1.95Zm0-6.54c1.173313.084555,2.335915-.272072,3.26-1c.736958-.710462,1.233437-1.633492,1.42-2.64.248436-1.203936.369105-2.430732.36-3.66v-22.34c.013179-1.229449-.107533-2.45668-.36-3.66-.191383-.978916-.688597-1.871801-1.42-2.55-1.971437-1.239211-4.478563-1.239211-6.45,0-.741285.671877-1.243318,1.56711-1.43,2.55-.256141,1.202903-.380209,2.430171-.37,3.66v22.38c-.010334,1.228342.103579,2.454581.34,3.66.158086,1.014078.655108,1.944671,1.41,2.64.924514.708889,2.078535,1.050821,3.24.96Z" transform="translate(-169.1-359.34)" fill="#ec2226" />
			<path d="M396.35,527.14v-48.6h11.65c2.815426-.068486,5.622935.326795,8.31,1.17c2.136506.685735,3.963329,2.101877,5.16,4c1.294716,2.344823,1.907809,5.005025,1.77,7.68.019452,1.774722-.161697,3.545958-.54,5.28-.305555,1.452631-.930677,2.819017-1.83,4-.938041,1.156629-2.171662,2.037787-3.57,2.55l6.78,23.94h-8.88l-5.88-22.26h-4.08v22.26Zm8.88-27.84h2.77c1.408844.060445,2.813309-.195845,4.11-.75c1.01069-.489651,1.794682-1.348821,2.19-2.4.482368-1.356376.706233-2.791147.66-4.23.136009-1.926218-.336197-3.846523-1.35-5.49q-1.35-1.83-5.13-1.83h-3.24Z" transform="translate(-169.1-359.34)" fill="#ec2226" />
			<path d="M434.63,527.14v-42.06h-7.74v-6.54h24.24v6.54h-7.62v42.06Z" transform="translate(-169.1-359.34)" fill="#ec2226" />
			<path d="M468.89,527.8q-5.4,0-8.4-2c-2.00664-1.328016-3.474415-3.327592-4.14-5.64-.815298-2.846692-1.199562-5.799456-1.14-8.76v-32.86h8.64v33.9c-.006019,1.435444.094255,2.869364.3,4.29.134119,1.197049.62543,2.326018,1.41,3.24c1.939176,1.641764,4.780824,1.641764,6.72,0c.749378-.932438,1.226905-2.05359,1.38-3.24.226145-1.418686.336509-2.853417.33-4.29v-33.9h8.58v32.88c.059562,2.960544-.324702,5.913308-1.14,8.76-.6619,2.305915-2.117663,4.303605-4.11,5.64q-2.97,1.98-8.43,1.98Z" transform="translate(-169.1-359.34)" fill="#ec2226" />
			<path d="M501.71,527.8c-2.687441.154445-5.354814-.545653-7.62-2-1.920273-1.4506-3.322739-3.48067-4-5.79-.873082-2.86691-1.28819-5.853659-1.23-8.85v-16.36c-.060489-3.043595.344176-6.07858,1.2-9c.686889-2.366573,2.184258-4.416164,4.23-5.79q3-2,8.37-2c2.74037-.128244,5.467684.450277,7.92,1.68c1.922547,1.076811,3.416123,2.782242,4.23,4.83.920482,2.442634,1.358568,5.040586,1.29,7.65v2.52h-8.46v-2.76c.016986-1.340777-.093511-2.680134-.33-4-.142466-.973694-.607226-1.871525-1.32-2.55-.932514-.662461-2.070591-.970911-3.21-.87-1.240144-.114571-2.471074.29937-3.39,1.14-.736843.841224-1.197608,1.888418-1.32,3-.18757,1.351781-.277802,2.71529-.27,4.08v20.27c-.020869,1.470977.119976,2.939793.42,4.38.198175,1.093682.745531,2.093658,1.56,2.85.921945.717233,2.074197,1.072866,3.24,1c1.198584.08278,2.382272-.304609,3.3-1.08.814924-.820824,1.368233-1.864803,1.59-3c.32247-1.498012.473441-3.027852.45-4.56v-4.56h-5.22v-5.58h13.2v24.66h-5.7l-.66-4.8c-.600764,1.546845-1.605732,2.90407-2.91,3.93-1.555866,1.117308-3.447551,1.667873-5.36,1.56Z" transform="translate(-169.1-359.34)" fill="#ec2226" />
			<path d="M520.61,527.14l9.72-48.6h9.48l9.72,48.6h-8.22l-1.92-11.22h-8.46l-2,11.22Zm11.22-16.86h6.6l-3.3-20.4Z" transform="translate(-169.1-359.34)" fill="#ec2226" />
			<path d="M554.15,527.14v-48.6h8.85v42.46h11.76v6.12Z" transform="translate(-169.1-359.34)" fill="#ec2226" />
		</g>
	</g>
	<g id="eq87RLPUpEk12_to" transform="translate(188.590521,24.319311)">
		<g id="eq87RLPUpEk12" transform="translate(-188.849991,-84.161606)" opacity="0">
			<path d="M331,467.78v-48.6h11.46q5.94,0,9.27,1.62c2.152906,1.010798,3.845499,2.796234,4.74,5c1.023937,2.720119,1.503024,5.615031,1.41,8.52v17.76c.088728,2.992714-.389689,5.975187-1.41,8.79-.864588,2.256562-2.530865,4.115101-4.68,5.22-2.822224,1.274766-5.906908,1.860856-9,1.71Zm8.88-6.18h2.7c1.539177.133206,3.079184-.246521,4.38-1.08.924295-.803147,1.504328-1.930989,1.62-3.15.218774-1.680873.319021-3.375056.3-5.07v-18.6c.035081-1.590649-.105775-3.180302-.42-4.74-.199431-1.07897-.827089-2.031278-1.74-2.64-1.318885-.657229-2.790348-.947376-4.26-.84h-2.58Z" transform="translate(-169.1-359.34)" />
			<path d="M364.38,467.78v-48.6h20.4v6.24h-11.52v14h9.06v6.18h-9.06v16.08h11.64v6.12Z" transform="translate(-169.1-359.34)" />
		</g>
	</g>
	<path id="eq87RLPUpEk15" d="M176.594536,49.43l88.935463.648457l5.500624-5.001748L222.536837,0.000002L176.594536,49.43Z" transform="translate(.000001 0)" opacity="0" fill="#f2ec60" stroke-width="0.81138" stroke-opacity="0" />
	<path d="M176.594537,49.429997h-19.735465l-.000004-51.327835l68.12447-.572978-48.389001,51.900813Z" transform="translate(0 0.000003)" fill="#fff" stroke-width="0.81138" />
	<g id="eq87RLPUpEk17_to" transform="translate(380.430016,24.91628)">
		<g transform="translate(-108.51001,-25.160065)">
			<path d="M169.1,408.74v-48.6h8.82v20.34h9.9v-20.34h8.88v48.6h-8.88v-22h-9.9v22Z" transform="translate(-169.1-359.34)" fill="#4DB964" />
			<path d="M204.38,408.74v-48.6h8.77v48.6Z" transform="translate(-169.1-359.34)" fill="#4DB964" />
			<path d="M232.88,409.4c-2.548505.089595-5.074949-.500599-7.32-1.71-1.973014-1.153367-3.527987-2.904463-4.44-5-1.078803-2.565871-1.649352-5.316734-1.68-8.1l7.62-1.5c.050215,1.686573.281543,3.362865.69,5c.275509,1.24427.875895,2.393284,1.74,3.33.825612.797808,1.94303,1.220907,3.09,1.17c1.1729.117666,2.325324-.368159,3.06-1.29.632015-.970218.946548-2.113022.9-3.27.077861-1.847793-.425775-3.673472-1.44-5.22-1.104685-1.514949-2.39472-2.885611-3.84-4.08l-6.12-5.4c-1.65023-1.395667-3.041518-3.071306-4.11-4.95-1.081861-2.081033-1.608826-4.405878-1.53-6.75q0-5.76,3.36-8.88t9.14-3.15c1.949697-.078825,3.89357.262206,5.7,1c1.442671.637493,2.693927,1.640565,3.63,2.91.914736,1.278773,1.592174,2.711553,2,4.23.448715,1.633894.730162,3.309174.84,5l-7.56,1.32c-.0611-1.371409-.231642-2.735748-.51-4.08-.185397-1.051155-.663737-2.028631-1.38-2.82-.790719-.720154-1.843634-1.081981-2.91-1-1.146482-.061532-2.255988.415555-3,1.29-.717795.912589-1.089723,2.049625-1.05,3.21-.063665,1.418134.28358,2.82448,1,4.05.823407,1.221228,1.812915,2.321804,2.94,3.27l6.06,5.34c2.008484,1.689663,3.73952,3.683897,5.13,5.91c1.476625,2.470962,2.215691,5.312721,2.13,8.19.040743,2.158524-.486904,4.289805-1.53,6.18-1.000329,1.777712-2.475263,3.24226-4.26,4.23-1.945965,1.061903-4.133393,1.602731-6.35,1.57Z" transform="translate(-169.1-359.34)" fill="#4DB964" />
			<path d="M255.14,408.74v-42.06h-7.74v-6.54h24.24v6.54h-7.64v42.06Z" transform="translate(-169.1-359.34)" fill="#4DB964" />
			<path d="M289,409.4c-2.865638.141308-5.71347-.523879-8.22-1.92-2.046225-1.287282-3.591494-3.234745-4.38-5.52-.934875-2.74095-1.381647-5.624659-1.32-8.52v-18.18c-.067062-2.866287.380003-5.721402,1.32-8.43.798865-2.240516,2.345788-4.137086,4.38-5.37c2.519989-1.355663,5.361867-1.998715,8.22-1.86q5.28,0,8.31,1.86c2.024049,1.244564,3.56768,3.137098,4.38,5.37.960716,2.704059,1.418258,5.561158,1.35,8.43v18.24c.061572,2.868386-.395778,5.724286-1.35,8.43-.815202,2.27051-2.354202,4.210072-4.38,5.52q-2.99,1.95-8.31,1.95Zm0-6.54c1.176565.086117,2.342845-.270544,3.27-1c.737671-.70851,1.231382-1.632905,1.41-2.64.248436-1.203936.369105-2.430732.36-3.66v-22.34c.013179-1.229449-.107533-2.45668-.36-3.66-.183988-.979354-.678374-1.873458-1.41-2.55-.941685-.69521-2.103404-1.025608-3.27-.93-1.137263-.081713-2.265975.248382-3.18.93-.747899.668082-1.254132,1.564535-1.44,2.55-.252467,1.20332-.373179,2.430551-.36,3.66v22.38c-.008517,1.227797.101999,2.453529.33,3.66.161835,1.01282.658238,1.942254,1.41,2.64.925814.706334,2.078837,1.047971,3.24.96Z" transform="translate(-169.1-359.34)" fill="#4DB964" />
			<path d="M309.62,408.74v-48.6h11.64c2.815426-.068486,5.622935.326795,8.31,1.17c2.136506.685735,3.963329,2.101877,5.16,4c1.296541,2.34775,1.909694,5.011673,1.77,7.69.019452,1.774722-.161697,3.545958-.54,5.28-.305555,1.452631-.930677,2.819017-1.83,4-.938041,1.156629-2.171662,2.037787-3.57,2.55l6.78,23.94h-8.88l-5.88-22.26h-4.08v22.26Zm8.88-27.84h2.76c1.408844.060445,2.813309-.195845,4.11-.75c1.01069-.489651,1.794682-1.348821,2.19-2.4.482368-1.356376.706233-2.791147.66-4.23.136009-1.926218-.336197-3.846523-1.35-5.49q-1.35-1.83-5.13-1.83h-3.24Z" transform="translate(-169.1-359.34)" fill="#4DB964" />
			<path d="M343.4,408.74v-48.6h8.76v48.6Z" transform="translate(-169.1-359.34)" fill="#4DB964" />
			<path d="M357.2,408.74l9.72-48.6h9.48l9.72,48.6h-8.22L376,397.52h-8.46l-2,11.22Zm11.22-16.86h6.58l-3.3-20.4Z" transform="translate(-169.1-359.34)" fill="#4DB964" />
		</g>
	</g>
	<path d="M271.030624,45.076707L222.536838,0L324.99,-0.0023l95.7.018513v56.074684c0,0-159.869479,0-159.869479,0s10.210103-11.01419,10.210103-11.01419Z" transform="translate(0 0.000002)" fill="#fff" stroke="#3f5787" stroke-width="0.81138" stroke-opacity="0" />
	<path id="eq87RLPUpEk27" d="M156.859072,167.77v-49.117446l-43.377284-1.262056-5.116503,5.427367L156.859072,167.77Z" transform="translate(.000002 0)" opacity="0" fill="#f2ec60" stroke-width="0.81138" />
	<path d="M-10,117.390497h123.43l-5.064713,5.427367l48.493785,45.002135v.660862L-10,167.059011v-49.668514Z" transform="translate(0 0.000001)" fill="#fff" stroke-width="0.81138" />
</svg>
