<svg width="16" height="14" viewBox="0 0 16 14" fill="none" xmlns="http://www.w3.org/2000/svg">
    <g clip-path="url(#clip0_1472_1893)">
    <path d="M15.5556 12.2496H14.2222V3.10312C14.2222 2.358 13.625 1.7496 12.8889 1.7496L9.77778 1.74987V3.4996H12.4444V13.9996H15.5556C15.8021 13.9996 16 13.8048 16 13.5867V12.7363C16 12.4437 15.8028 12.2496 15.5556 12.2496ZM7.78611 0.0271345L2.45278 1.38749C2.03056 1.49011 1.77778 1.85241 1.77778 2.26585V12.2496H0.444444C0.197917 12.2496 0 12.4444 0 12.6625V13.5129C0 13.8055 0.197917 13.9996 0.444444 13.9996H8.88889V0.905498C8.88889 0.317607 8.34722 -0.11642 7.78611 0.0271345ZM6.44444 7.8746C6.07639 7.8746 5.77778 7.48167 5.77778 7.02421C5.77778 6.54241 6.07639 6.17382 6.44444 6.17382C6.8125 6.17382 7.11111 6.51835 7.11111 6.9996C7.11111 7.48085 6.81389 7.8746 6.44444 7.8746Z" fill="#434B7C"/>
    </g>
    <defs>
    <clipPath id="clip0_1472_1893">
    <rect width="16" height="14" fill="white"/>
    </clipPath>
    </defs>
    </svg>
    