<svg id="Camada_1" data-name="Camada 1" xmlns="http://www.w3.org/2000/svg" viewBox="0 0 405.69 168.46">
  <title>logo1</title>
  <rect x="325.66" y="359.44" width="66.21" height="167.69" transform="translate(228.74 -484.99) rotate(42.91)" style="fill: #f2ec60"/>
  <g>
    <path d="M169.1,408.74v-48.6h8.82v20.34h9.9V360.14h8.88v48.6h-8.88v-22h-9.9v22Z" transform="translate(-169.1 -359.34)" style="fill: #ec2226"/>
    <path d="M204.38,408.74v-48.6h8.77v48.6Z" transform="translate(-169.1 -359.34)" style="fill: #ec2226"/>
    <path d="M232.88,409.4a14.37,14.37,0,0,1-7.32-1.71,10.77,10.77,0,0,1-4.44-5,21.51,21.51,0,0,1-1.68-8.1l7.62-1.5a23.55,23.55,0,0,0,.69,5,7.21,7.21,0,0,0,1.74,3.33,4.18,4.18,0,0,0,3.09,1.17,3.47,3.47,0,0,0,3.06-1.29,5.58,5.58,0,0,0,.9-3.27,8.84,8.84,0,0,0-1.44-5.22,22.46,22.46,0,0,0-3.84-4.08l-6.12-5.4a18.39,18.39,0,0,1-4.11-4.95,13.64,13.64,0,0,1-1.53-6.75q0-5.76,3.36-8.88T232,359.6a13.62,13.62,0,0,1,5.7,1,9.06,9.06,0,0,1,3.63,2.91,13.12,13.12,0,0,1,2,4.23,25,25,0,0,1,.84,5l-7.56,1.32a25.78,25.78,0,0,0-.51-4.08,5.67,5.67,0,0,0-1.38-2.82,3.88,3.88,0,0,0-2.91-1,3.68,3.68,0,0,0-3,1.29,4.92,4.92,0,0,0-1.05,3.21,7.37,7.37,0,0,0,1,4.05,15.86,15.86,0,0,0,2.94,3.27l6.06,5.34a25.1,25.1,0,0,1,5.13,5.91,15.09,15.09,0,0,1,2.13,8.19,12.31,12.31,0,0,1-1.53,6.18,11,11,0,0,1-4.26,4.23A12.86,12.86,0,0,1,232.88,409.4Z" transform="translate(-169.1 -359.34)" style="fill: #ec2226"/>
    <path d="M255.14,408.74V366.68H247.4v-6.54h24.24v6.54H264v42.06Z" transform="translate(-169.1 -359.34)" style="fill: #ec2226"/>
    <path d="M289,409.4a15.34,15.34,0,0,1-8.22-1.92,10.61,10.61,0,0,1-4.38-5.52,24.76,24.76,0,0,1-1.32-8.52V375.26a24,24,0,0,1,1.32-8.43,10.34,10.34,0,0,1,4.38-5.37A15.74,15.74,0,0,1,289,359.6q5.28,0,8.31,1.86a10.53,10.53,0,0,1,4.38,5.37,23.51,23.51,0,0,1,1.35,8.43V393.5a23.81,23.81,0,0,1-1.35,8.43,11,11,0,0,1-4.38,5.52Q294.32,409.4,289,409.4Zm0-6.54a4.73,4.73,0,0,0,3.27-1,4.83,4.83,0,0,0,1.41-2.64,17.47,17.47,0,0,0,.36-3.66V373.22a16.94,16.94,0,0,0-.36-3.66,4.64,4.64,0,0,0-1.41-2.55,4.84,4.84,0,0,0-3.27-.93,4.75,4.75,0,0,0-3.18.93,4.55,4.55,0,0,0-1.44,2.55,16.94,16.94,0,0,0-.36,3.66V395.6a19,19,0,0,0,.33,3.66,4.59,4.59,0,0,0,1.41,2.64A4.75,4.75,0,0,0,289,402.86Z" transform="translate(-169.1 -359.34)" style="fill: #ec2226"/>
    <path d="M309.62,408.74v-48.6h11.64a25.67,25.67,0,0,1,8.31,1.17,9.55,9.55,0,0,1,5.16,4A14.36,14.36,0,0,1,336.5,373a23.56,23.56,0,0,1-.54,5.28,10,10,0,0,1-1.83,4,8.25,8.25,0,0,1-3.57,2.55l6.78,23.94h-8.88l-5.88-22.26H318.5v22.26Zm8.88-27.84h2.76a9.43,9.43,0,0,0,4.11-.75,4.38,4.38,0,0,0,2.19-2.4,11.52,11.52,0,0,0,.66-4.23,9.22,9.22,0,0,0-1.35-5.49q-1.35-1.83-5.13-1.83H318.5Z" transform="translate(-169.1 -359.34)" style="fill: #ec2226"/>
    <path d="M343.4,408.74v-48.6h8.76v48.6Z" transform="translate(-169.1 -359.34)" style="fill: #ec2226"/>
    <path d="M357.2,408.74l9.72-48.6h9.48l9.72,48.6H377.9L376,397.52h-8.46l-2,11.22Zm11.22-16.86H375l-3.3-20.4Z" transform="translate(-169.1 -359.34)" style="fill: #ec2226"/>
  </g>
  <g>
    <path d="M331,527.14v-48.6h14.28a13.81,13.81,0,0,1,7.11,1.62,9.66,9.66,0,0,1,4,4.71,19.37,19.37,0,0,1,1.29,7.47A15.68,15.68,0,0,1,356,500a9.66,9.66,0,0,1-4.53,4.23,16.51,16.51,0,0,1-6.87,1.32h-4.8v21.6Zm8.88-27.84h3.36a8.39,8.39,0,0,0,3.75-.69,3.69,3.69,0,0,0,1.86-2.22,13.39,13.39,0,0,0,.51-4.11,19.23,19.23,0,0,0-.39-4.29,3.68,3.68,0,0,0-1.68-2.43,8.08,8.08,0,0,0-4.05-.78h-3.36Z" transform="translate(-169.1 -359.34)" style="fill: #4db964"/>
    <path d="M375.78,527.8a15.35,15.35,0,0,1-8.23-1.92,10.61,10.61,0,0,1-4.38-5.52,24.77,24.77,0,0,1-1.31-8.52V493.66a24,24,0,0,1,1.31-8.43,10.34,10.34,0,0,1,4.38-5.37,19.29,19.29,0,0,1,16.53,0,10.48,10.48,0,0,1,4.38,5.37,23.28,23.28,0,0,1,1.36,8.43V511.9a23.58,23.58,0,0,1-1.36,8.43,10.92,10.92,0,0,1-4.38,5.52Q381.05,527.8,375.78,527.8Zm0-6.54a4.72,4.72,0,0,0,3.26-1,4.91,4.91,0,0,0,1.42-2.64,17.47,17.47,0,0,0,.36-3.66V491.62a16.94,16.94,0,0,0-.36-3.66,4.71,4.71,0,0,0-1.42-2.55,6.06,6.06,0,0,0-6.45,0,4.6,4.6,0,0,0-1.43,2.55,16.9,16.9,0,0,0-.37,3.66V514a18.22,18.22,0,0,0,.34,3.66,4.54,4.54,0,0,0,1.41,2.64A4.72,4.72,0,0,0,375.78,521.26Z" transform="translate(-169.1 -359.34)" style="fill: #4db964"/>
    <path d="M396.35,527.14v-48.6H408a25.67,25.67,0,0,1,8.31,1.17,9.55,9.55,0,0,1,5.16,4,14.36,14.36,0,0,1,1.77,7.68,23.56,23.56,0,0,1-.54,5.28,10,10,0,0,1-1.83,4,8.25,8.25,0,0,1-3.57,2.55l6.78,23.94h-8.88l-5.88-22.26h-4.08v22.26Zm8.88-27.84H408a9.43,9.43,0,0,0,4.11-.75,4.38,4.38,0,0,0,2.19-2.4,11.52,11.52,0,0,0,.66-4.23,9.22,9.22,0,0,0-1.35-5.49q-1.35-1.83-5.13-1.83h-3.24Z" transform="translate(-169.1 -359.34)" style="fill: #4db964"/>
    <path d="M434.63,527.14V485.08h-7.74v-6.54h24.24v6.54h-7.62v42.06Z" transform="translate(-169.1 -359.34)" style="fill: #4db964"/>
    <path d="M468.89,527.8q-5.4,0-8.4-2a10.12,10.12,0,0,1-4.14-5.64,29.65,29.65,0,0,1-1.14-8.76V478.54h8.64v33.9a29.08,29.08,0,0,0,.3,4.29,6,6,0,0,0,1.41,3.24,5.2,5.2,0,0,0,6.72,0,6.5,6.5,0,0,0,1.38-3.24,26.49,26.49,0,0,0,.33-4.29v-33.9h8.58v32.88a29.65,29.65,0,0,1-1.14,8.76,10.17,10.17,0,0,1-4.11,5.64Q474.35,527.8,468.89,527.8Z" transform="translate(-169.1 -359.34)" style="fill: #4db964"/>
    <path d="M501.71,527.8a12.75,12.75,0,0,1-7.62-2,11.21,11.21,0,0,1-4-5.79,28.48,28.48,0,0,1-1.23-8.85V494.8a29.9,29.9,0,0,1,1.2-9,10.5,10.5,0,0,1,4.23-5.79q3-2,8.37-2a16,16,0,0,1,7.92,1.68,9.6,9.6,0,0,1,4.23,4.83,20.19,20.19,0,0,1,1.29,7.65v2.52h-8.46v-2.76a21.16,21.16,0,0,0-.33-4,4.4,4.4,0,0,0-1.32-2.55,4.81,4.81,0,0,0-3.21-.87,4.42,4.42,0,0,0-3.39,1.14,5.46,5.46,0,0,0-1.32,3,28.5,28.5,0,0,0-.27,4.08V513a20.08,20.08,0,0,0,.42,4.38,5.14,5.14,0,0,0,1.56,2.85,4.79,4.79,0,0,0,3.24,1,4.62,4.62,0,0,0,3.3-1.08,5.85,5.85,0,0,0,1.59-3,20.2,20.2,0,0,0,.45-4.56v-4.56h-5.22v-5.58h13.2v24.66h-5.7l-.66-4.8a9.27,9.27,0,0,1-2.91,3.93A8.38,8.38,0,0,1,501.71,527.8Z" transform="translate(-169.1 -359.34)" style="fill: #4db964"/>
    <path d="M520.61,527.14l9.72-48.6h9.48l9.72,48.6h-8.22l-1.92-11.22h-8.46l-2,11.22Zm11.22-16.86h6.6l-3.3-20.4Z" transform="translate(-169.1 -359.34)" style="fill: #4db964"/>
    <path d="M554.15,527.14v-48.6H563V521h11.76v6.12Z" transform="translate(-169.1 -359.34)" style="fill: #4db964"/>
  </g>
  <g>
    <path d="M331,467.78v-48.6h11.46q5.94,0,9.27,1.62a9.45,9.45,0,0,1,4.74,5,22.17,22.17,0,0,1,1.41,8.52v17.76a23.73,23.73,0,0,1-1.41,8.79,9.82,9.82,0,0,1-4.68,5.22,19.55,19.55,0,0,1-9,1.71Zm8.88-6.18h2.7a7,7,0,0,0,4.38-1.08,4.77,4.77,0,0,0,1.62-3.15,36.14,36.14,0,0,0,.3-5.07V433.7a21.59,21.59,0,0,0-.42-4.74,4.06,4.06,0,0,0-1.74-2.64,8.21,8.21,0,0,0-4.26-.84h-2.58Z" transform="translate(-169.1 -359.34)"/>
    <path d="M364.38,467.78v-48.6h20.4v6.24H373.26v14h9.06v6.18h-9.06v16.08H384.9v6.12Z" transform="translate(-169.1 -359.34)"/>
  </g>
</svg>
