<svg width="26" height="26" viewBox="0 0 26 26" fill="none" xmlns="http://www.w3.org/2000/svg">
<path fill-rule="evenodd" clip-rule="evenodd" d="M15.438 3.25C15.2225 3.25 15.0159 3.1644 14.8635 3.01202C14.7111 2.85965 14.6255 2.65299 14.6255 2.4375C14.6255 2.22201 14.7111 2.01535 14.8635 1.86298C15.0159 1.7106 15.2225 1.625 15.438 1.625H23.563C23.7785 1.625 23.9852 1.7106 24.1375 1.86298C24.2899 2.01535 24.3755 2.22201 24.3755 2.4375V10.5625C24.3755 10.778 24.2899 10.9847 24.1375 11.137C23.9852 11.2894 23.7785 11.375 23.563 11.375C23.3475 11.375 23.1409 11.2894 22.9885 11.137C22.8361 10.9847 22.7505 10.778 22.7505 10.5625V4.39887L16.0409 11.1085C17.3601 12.7224 18.0085 14.7816 17.8521 16.8602C17.6957 18.9388 16.7463 20.8778 15.2005 22.2761C13.6546 23.6745 11.6304 24.4252 9.54659 24.373C7.46277 24.3208 5.47871 23.4697 4.00476 21.9958C2.53081 20.5218 1.67974 18.5378 1.62755 16.4539C1.57536 14.3701 2.32606 12.3459 3.72438 10.8001C5.1227 9.25418 7.06168 8.30485 9.14027 8.14843C11.2189 7.992 13.2781 8.64044 14.892 9.95963L21.6016 3.25H15.438ZM9.75052 9.75C8.02661 9.75 6.37331 10.4348 5.15432 11.6538C3.93534 12.8728 3.25052 14.5261 3.25052 16.25C3.25052 17.9739 3.93534 19.6272 5.15432 20.8462C6.37331 22.0652 8.02661 22.75 9.75052 22.75C11.4744 22.75 13.1277 22.0652 14.3467 20.8462C15.5657 19.6272 16.2505 17.9739 16.2505 16.25C16.2505 14.5261 15.5657 12.8728 14.3467 11.6538C13.1277 10.4348 11.4744 9.75 9.75052 9.75Z" fill="#3DAAC5"/>
</svg>
