<svg width="16" height="14" viewBox="0 0 16 14" fill="none" xmlns="http://www.w3.org/2000/svg">
    <g clip-path="url(#clip0_1472_1889)">
    <path d="M15.5877 4.48462C15.9527 4.71978 16.1152 5.25298 15.8777 5.67407C15.6852 6.07329 15.1977 6.25103 14.8127 5.99126L7.9777 1.8763L1.1887 5.99126C0.802447 6.25103 0.315447 6.07329 0.100822 5.67407C-0.113753 5.25298 0.0253968 4.71978 0.411697 4.48462L7.6127 0.110358C7.8527 -0.0364504 8.1477 -0.0364504 8.3877 0.110358L15.5877 4.48462ZM6.9777 5.469C6.9777 4.8647 7.4477 4.37525 7.9777 4.37525C8.5527 4.37525 8.9777 4.8647 8.9777 5.469C8.9777 6.07329 8.5527 6.56275 7.9777 6.56275C7.4477 6.56275 6.9777 6.07329 6.9777 5.469ZM2.5777 8.094C2.5777 7.4897 3.0477 7.00025 3.5777 7.00025C4.1527 7.00025 4.5777 7.4897 4.5777 8.094C4.5777 8.69829 4.1527 9.18775 3.5777 9.18775C3.0477 9.18775 2.5777 8.69829 2.5777 8.094ZM13.3777 8.094C13.3777 8.69829 12.9527 9.18775 12.3777 9.18775C11.8477 9.18775 11.3777 8.69829 11.3777 8.094C11.3777 7.4897 11.8477 7.00025 12.3777 7.00025C12.9527 7.00025 13.3777 7.4897 13.3777 8.094ZM5.6727 13.437L4.9777 12.0725V13.1252C4.9777 13.6092 4.6427 14.0002 4.1777 14.0002H2.9777C2.5577 14.0002 2.1777 13.6092 2.1777 13.1252V12.0725L1.52845 13.437C1.3712 13.7542 1.00745 13.8745 0.715697 13.7022C0.423947 13.5299 0.314697 13.1334 0.471947 12.8135L1.4187 10.8913C1.80245 10.112 2.5477 9.62525 3.3552 9.62525H3.8452C4.2527 9.62525 4.6427 9.74829 4.9802 9.96978L5.8177 8.26626C6.2027 7.48696 6.9477 6.97564 7.7552 6.97564H8.2452C9.0527 6.97564 9.7977 7.48696 10.1827 8.26626L11.0202 9.96978C11.3577 9.74829 11.7477 9.62525 12.1552 9.62525H12.6452C13.4527 9.62525 14.1977 10.112 14.5827 10.8913L15.5277 12.8135C15.6852 13.1334 15.5752 13.5299 15.2852 13.7022C14.9927 13.8745 14.6302 13.7542 14.4727 13.437L13.7777 12.0725V13.1252C13.7777 13.6092 13.4427 14.0002 12.9777 14.0002H11.7777C11.3577 14.0002 10.9777 13.6092 10.9777 13.1252V12.0725L10.3277 13.437C10.1702 13.7542 9.8077 13.8745 9.5152 13.7022C9.2027 13.5299 9.1152 13.1334 9.2727 12.8135L10.1802 10.9678C10.1377 10.9241 10.1002 10.8721 10.0727 10.812L9.3777 9.44751V10.9377C9.3777 11.4217 9.0427 11.8127 8.5777 11.8127H7.3777C6.9577 11.8127 6.5777 11.4217 6.5777 10.9377V9.44751L5.9277 10.812C5.8777 10.8721 5.8627 10.9241 5.8202 10.9678L6.7277 12.8135C6.8852 13.1334 6.7752 13.5299 6.4852 13.7022C6.1927 13.8745 5.8302 13.7542 5.6727 13.437Z" fill="#434B7C"/>
    </g>
    <defs>
    <clipPath id="clip0_1472_1889">
    <rect width="16" height="14" fill="white"/>
    </clipPath>
    </defs>
    </svg>
    