<svg width="16" height="14" viewBox="0 0 16 14" fill="none" xmlns="http://www.w3.org/2000/svg">
    <path d="M14.8 0H5.2C4.5375 0 4 0.608398 4 1.35707V2.625C4.5855 2.625 5.1275 2.81042 5.5775 3.11199V1.75H14.3775V9.625H12.7775V8.3125C12.7775 8.07084 12.5984 7.875 12.3775 7.875H9.9775C9.7566 7.875 9.5775 8.07084 9.5775 8.3125V9.625H7.1825C7.73425 10.0756 8.171 10.6777 8.4515 11.375H14.799C15.4625 11.375 16 10.768 16 10.0187V1.35707C16 0.608398 15.4625 0 14.8 0ZM4 8.75C5.3255 8.75 6.4 7.57477 6.4 6.125C6.4 4.67523 5.3255 3.5 4 3.5C2.6525 3.5 1.6 4.65117 1.6 6.125C1.6 7.57422 2.6525 8.75 4 8.75ZM4.8 9.625H3.2C1.43275 9.625 0 11.1921 0 13.125C0 13.6082 0.35825 14 0.8 14H7.2C7.64175 14 8 13.6082 8 13.125C8 11.1918 6.5675 9.625 4.8 9.625Z" fill="#434B7C"/>
    </svg>
    