<svg width="22" height="20" viewBox="0 0 22 20" fill="none" xmlns="http://www.w3.org/2000/svg">
    <path d="M21.9924 9.98047C21.9924 10.6836 21.4194 11.2344 20.7701 11.2344H19.5479L19.5747 17.4883C19.5785 18.875 18.4823 20 17.1302 20H4.89271C3.54254 20 2.44788 18.8789 2.44788 17.5V11.2344H1.22413C0.535486 11.2344 0 10.6836 0 9.98047C0 9.62891 0.114736 9.31641 0.382326 9.04297L10.175 0.313125C10.4424 0.0391406 10.7479 0 11.0153 0C11.2826 0 11.5882 0.0782812 11.8212 0.273984L21.5722 9.04297C21.8778 9.31641 22.0344 9.62891 21.9924 9.98047ZM11 6.25C9.65174 6.25 8.55556 7.37109 8.55556 8.75C8.55556 10.1289 9.65174 11.25 11 11.25C12.3483 11.25 13.4444 10.1289 13.4444 8.75C13.4444 7.37109 12.3483 6.25 11 6.25ZM9.77778 12.5C8.08958 12.5 6.72222 13.8984 6.72222 15.625C6.72222 15.9688 6.99722 16.25 7.33333 16.25H14.6667C15.0028 16.25 15.2778 15.9688 15.2778 15.625C15.2778 13.8984 13.9104 12.5 12.2222 12.5H9.77778Z" fill="#434B7C"/>
    </svg>
    