<svg width="28" height="28" viewBox="0 0 28 28" fill="none" xmlns="http://www.w3.org/2000/svg">
    <path fill-rule="evenodd" clip-rule="evenodd"
        d="M14 0C12.7925 0 10.7748 0.46375 8.87601 0.98C6.93351 1.505 4.97526 2.12625 3.82376 2.5025C3.34232 2.66149 2.91549 2.95306 2.59231 3.34373C2.26913 3.73439 2.06271 4.20829 1.99676 4.711C0.95376 12.5458 3.37401 18.3523 6.31051 22.1935C7.55578 23.8367 9.04056 25.2837 10.7153 26.4862C11.3908 26.964 12.0173 27.3298 12.5493 27.58C13.0393 27.811 13.566 28 14 28C14.434 28 14.959 27.811 15.4508 27.58C16.0921 27.2683 16.7057 26.9024 17.2848 26.4862C18.9595 25.2837 20.4443 23.8367 21.6895 22.1935C24.626 18.3523 27.0463 12.5458 26.0033 4.711C25.9374 4.20805 25.7311 3.73387 25.4079 3.34291C25.0847 2.95194 24.6578 2.66005 24.1763 2.50075C22.5047 1.95267 20.8201 1.44503 19.124 0.97825C17.2253 0.4655 15.2075 0 14 0ZM14 8.75C14.6199 8.74908 15.2202 8.96758 15.6944 9.36681C16.1687 9.76604 16.4863 10.3202 16.5911 10.9312C16.6959 11.5422 16.5811 12.1706 16.267 12.705C15.9529 13.2395 15.4598 13.6455 14.875 13.8512L15.5488 17.3337C15.5733 17.4604 15.5695 17.5909 15.5376 17.716C15.5058 17.841 15.4467 17.9574 15.3646 18.0569C15.2825 18.1564 15.1794 18.2365 15.0627 18.2915C14.9459 18.3465 14.8185 18.375 14.6895 18.375H13.3105C13.1816 18.3748 13.0544 18.3461 12.9379 18.291C12.8214 18.2359 12.7186 18.1557 12.6366 18.0562C12.5547 17.9568 12.4958 17.8404 12.464 17.7155C12.4323 17.5906 12.4285 17.4603 12.453 17.3337L13.125 13.8512C12.5402 13.6455 12.0471 13.2395 11.733 12.705C11.4189 12.1706 11.3041 11.5422 11.4089 10.9312C11.5137 10.3202 11.8313 9.76604 12.3056 9.36681C12.7798 8.96758 13.3801 8.74908 14 8.75Z"
        fill="#3DAAC5" />
</svg>